<svg xmlns="http://www.w3.org/2000/svg" width="499.239" height="511.998" viewBox="0 0 499.239 511.998">
  <g id="_i_icon_12783_icon_127830" transform="translate(-6.381 0)">
    <path id="パス_1" data-name="パス 1" d="M205.116,153.078c31.534,11.546,69.4-12.726,84.58-54.209s1.915-84.462-29.614-96S190.682,15.6,175.5,57.086,173.584,141.548,205.116,153.078Z" fill="#dd4a4c"/>
    <path id="パス_2" data-name="パス 2" d="M85.3,219.239c32.987-2.86,56.678-40.344,52.929-83.75S104.68,59.236,71.693,62.08c-32.984,2.869-56.674,40.36-52.921,83.759S52.313,222.091,85.3,219.239Z" fill="#33a969"/>
    <path id="パス_3" data-name="パス 3" d="M342.2,217.768c28.952,17.017,70.552-.073,92.926-38.154,22.374-38.106,17.041-82.758-11.915-99.774s-70.56.1-92.93,38.178C307.9,156.117,313.245,200.768,342.2,217.768Z" fill="#e9c106"/>
    <path id="パス_4" data-name="パス 4" d="M497.259,262.912c-18.771-27.271-63.07-29.379-98.954-4.694-35.892,24.7-49.762,66.822-31,94.1S430.378,381.7,466.263,357,516.021,290.191,497.259,262.912Z" fill="#018ff5"/>
    <path id="パス_5" data-name="パス 5" d="M304.511,268.059c-3.58-24.773-18.766-47.366-43.039-58.824s-51.365-8.807-72.758,4.169c-23.646,14.35-38.772,33.1-59.138,41.29s-77.4-16.209-112.912,48.278C-8.417,348.52,14.607,406.1,61.626,428.287c35.738,16.864,64.023,14.981,84.788,24.774s37.29,32.83,73.025,49.692c47.018,22.188,106.1,3.362,125.315-44.957,27.206-68.407-27.9-96.922-34.522-117.85S308.47,295.426,304.511,268.059Z" fill="#4b4b4b"/>
  </g>
</svg>
